<?xml version="1.0" encoding="UTF-8"?>
<svg version="1.1" xmlns="http://www.w3.org/2000/svg" width="20" height="20">
<path d="M0 0 C0.33 1.65 0.66 3.3 1 5 C-0.32 5 -1.64 5 -3 5 C-3 5.66 -3 6.32 -3 7 C-1.68 7 -0.36 7 1 7 C0.67 8.65 0.34 10.3 0 12 C-0.99 12 -1.98 12 -3 12 C-3 14.64 -3 17.28 -3 20 C-4.65 20 -6.3 20 -8 20 C-8 17.36 -8 14.72 -8 12 C-8.99 12 -9.98 12 -11 12 C-11 10.35 -11 8.7 -11 7 C-10.01 7 -9.02 7 -8 7 C-7.87625 6.030625 -7.7525 5.06125 -7.625 4.0625 C-7.41875 3.051875 -7.2125 2.04125 -7 1 C-4.53721199 -0.231394 -2.7204945 -0.07159196 0 0 Z M-6 3 C-6 4.65 -6 6.3 -6 8 C-6.99 8 -7.98 8 -9 8 C-9 8.66 -9 9.32 -9 10 C-8.01 10 -7.02 10 -6 10 C-6 12.64 -6 15.28 -6 18 C-5.67 18 -5.34 18 -5 18 C-5 15.36 -5 12.72 -5 10 C-3.68 10 -2.36 10 -1 10 C-1 9.34 -1 8.68 -1 8 C-2.32 8 -3.64 8 -5 8 C-5 6.68 -5 5.36 -5 4 C-3.68 4 -2.36 4 -1 4 C-1 3.34 -1 2.68 -1 2 C-3.9254644 1.7763932 -3.9254644 1.7763932 -6 3 Z " fill="#9A9AAE" transform="translate(15,0)"/>
</svg>
