<?xml version="1.0" encoding="UTF-8"?>
<svg version="1.1" xmlns="http://www.w3.org/2000/svg" width="20" height="20">
<path d="M0 0 C1.0725 0.00515625 2.145 0.0103125 3.25 0.015625 C4.85875 0.00789062 4.85875 0.00789062 6.5 0 C9.25 0.265625 9.25 0.265625 11.25 2.265625 C11.515625 5.015625 11.515625 5.015625 11.5 8.265625 C11.50515625 9.338125 11.5103125 10.410625 11.515625 11.515625 C11.25 14.265625 11.25 14.265625 9.25 16.265625 C6.5 16.53125 6.5 16.53125 3.25 16.515625 C1.64125 16.52335937 1.64125 16.52335937 0 16.53125 C-2.75 16.265625 -2.75 16.265625 -4.75 14.265625 C-5.015625 11.515625 -5.015625 11.515625 -5 8.265625 C-5.00515625 7.193125 -5.0103125 6.120625 -5.015625 5.015625 C-4.64793525 1.20895466 -3.80667034 0.36768975 0 0 Z M-2.75 3.265625 C-2.84823937 4.92991551 -2.87973631 6.59844431 -2.875 8.265625 C-2.87757812 9.173125 -2.88015625 10.080625 -2.8828125 11.015625 C-3.00173779 13.23529111 -3.00173779 13.23529111 -1.75 14.265625 C-0.08570949 14.36386437 1.58281931 14.39536131 3.25 14.390625 C4.1575 14.39320312 5.065 14.39578125 6 14.3984375 C8.21966611 14.51736279 8.21966611 14.51736279 9.25 13.265625 C9.34823937 11.60133449 9.37973631 9.93280569 9.375 8.265625 C9.37757812 7.358125 9.38015625 6.450625 9.3828125 5.515625 C9.50173779 3.29595889 9.50173779 3.29595889 8.25 2.265625 C6.58570949 2.16738563 4.91718069 2.13588869 3.25 2.140625 C2.3425 2.13804688 1.435 2.13546875 0.5 2.1328125 C-1.71966611 2.01388721 -1.71966611 2.01388721 -2.75 3.265625 Z " fill="#9A9AAC" transform="translate(6.75,1.734375)"/>
<path d="M0 0 C2.375 0.1875 2.375 0.1875 5 1 C6.5 3.3125 6.5 3.3125 7 6 C5.625 8.3125 5.625 8.3125 4 10 C1.625 9.8125 1.625 9.8125 -1 9 C-2.5 6.6875 -2.5 6.6875 -3 4 C-1.625 1.6875 -1.625 1.6875 0 0 Z M1 2 C0.34 3.32 -0.32 4.64 -1 6 C0.98 6.99 0.98 6.99 3 8 C3.66 6.68 4.32 5.36 5 4 C3.68 3.34 2.36 2.68 1 2 Z " fill="#9D9DAF" transform="translate(8,5)"/>
<path d="" fill="#9B9BAD" transform="translate(0,0)"/>
</svg>
