<?xml version="1.0" encoding="UTF-8"?>
<svg version="1.1" xmlns="http://www.w3.org/2000/svg" width="20" height="20">
<path d="M0 0 C1.65 0 3.3 0 5 0 C5 1.32 5 2.64 5 4 C5.84304687 4.03738281 6.68609375 4.07476563 7.5546875 4.11328125 C8.65039062 4.17902344 9.74609375 4.24476563 10.875 4.3125 C11.96554687 4.37050781 13.05609375 4.42851563 14.1796875 4.48828125 C15.11039063 4.65714844 16.04109375 4.82601563 17 5 C19.20914 8.31371 19.22481553 9.3446021 19.125 13.1875 C19.10695313 14.08855469 19.08890625 14.98960938 19.0703125 15.91796875 C19.04710938 16.60503906 19.02390625 17.29210937 19 18 C17.02 18 15.04 18 13 18 C13 15.36 13 12.72 13 10 C12.34 10 11.68 10 11 10 C11 12.64 11 15.28 11 18 C7.04 18 3.08 18 -1 18 C-1.02717692 15.93757383 -1.0464758 13.87504297 -1.0625 11.8125 C-1.07410156 10.66394531 -1.08570312 9.51539063 -1.09765625 8.33203125 C-1.01192832 5.40699414 -0.67849023 2.83683709 0 0 Z M1 6 C1 9.3 1 12.6 1 16 C1.66 16 2.32 16 3 16 C3 12.7 3 9.4 3 6 C2.34 6 1.68 6 1 6 Z M7 6 C7 9.3 7 12.6 7 16 C7.66 16 8.32 16 9 16 C9.185625 14.72125 9.37125 13.4425 9.5625 12.125 C9.66691406 11.40570312 9.77132813 10.68640625 9.87890625 9.9453125 C10.1684297 7.91859333 10.1684297 7.91859333 9 6 C8.34 6 7.68 6 7 6 Z M13 6 C12.34 6.66 11.68 7.32 11 8 C11.99 8.33 12.98 8.66 14 9 C14.33 11.31 14.66 13.62 15 16 C15.66 16 16.32 16 17 16 C17 13.36 17 10.72 17 8 C15.68 7.34 14.36 6.68 13 6 Z " fill="#9B9BAE" transform="translate(1,1)"/>
</svg>
