<?xml version="1.0" encoding="UTF-8"?>
<svg version="1.1" xmlns="http://www.w3.org/2000/svg" width="20" height="20">
<path d="M0 0 C3.96 1.98 3.96 1.98 8 4 C8.66 2.68 9.32 1.36 10 0 C12.97 0 15.94 0 19 0 C18.33560368 5.44804981 16.98224942 10.52218823 13.5 14.875 C9.68642835 17.73517874 5.51659909 17.1433841 1 17 C0.34 16.67 -0.32 16.34 -1 16 C-1 14 -1 14 1 12 C0.505 11.195625 0.505 11.195625 0 10.375 C-1.24091523 7.42782633 -1.20678166 5.17065216 -1 2 C-0.67 1.34 -0.34 0.68 0 0 Z M11 2 C10.67 3.32 10.34 4.64 10 6 C3.25 4.125 3.25 4.125 1 3 C1.99 5.97 2.98 8.94 4 12 C4.66 12 5.32 12 6 12 C6 12.66 6 13.32 6 14 C5.01 14.495 5.01 14.495 4 15 C7.71520613 14.71421491 10.30020593 14.4972221 13.375 12.3125 C15.35296132 9.4977089 15.77747581 7.41203759 16 4 C15.67 3.34 15.34 2.68 15 2 C13.68 2 12.36 2 11 2 Z " fill="#9B9BAF" transform="translate(1,2)"/>
</svg>
